{"title":"Haunted Universities 2009 DVDRip fasamoo LKRG","uid":5700568,"size":734060447,"categoryP":"video","categoryS":"movies","magnet":"?xt=urn:btih:10fece471a846224280e82cd612a379d523c0235&amp;dn=Haunted+Universities+2009+DVDRip+fasamoo+LKRG&amp;tr=udp%3A%2F%2Ftracker.openbittorrent.com%3A80&amp;tr=udp%3A%2F%2Fopen.demonii.com%3A1337&amp;tr=udp%3A%2F%2Ftracker.coppersurfer.tk%3A6969&amp;tr=udp%3A%2F%2Fexodus.desync.com%3A6969","seeders":0,"leechers":2,"uploader":null,"files":3,"time":1279490469,"description":"PLOT\n\nThailand has an abundance of urban legends and horror stories about its universities. The movie tells of one main character that leads the audience into four different urban legends. The urban legends are experienced by different students, which are related to their fields of study. Watch how urban legends such as The Red Elevator, Vanishing Corpse, and murdered girl crawling to life to deliver food to a friend, among others, come to life in this horror movie.\n\nCAST\n\nPanward Hemmanee, Anna Reese, Ashiraya Peerapatkunchaya\nDirector: Bunjong Sinthanamongkolkul, Sutthiporn Tubtim\n\nGeneral\n\nHaunted Universities 2009 DVDRip fasamoo LKRG\n\nRIPPER : fasamoo\nFormat : AVI\nFormat/Info : Audio Video Interleave\nFile size : 700 MiB\nDuration : 1h 40mn\nOverall bit rate : 972 Kbps\nWriting application : VirtualDubMod 1.5.4.1 (build 2178/release)\nWriting library : VirtualDubMod build 2178/release\nLanguage : Thai\nSubtitles : English(*.srt); Genre : Horror\n\n\nVideo\nID : 0\nFormat : MPEG-4 Visual\nFormat profile : Advanced Simple@L5\nFormat settings, BVOP : Yes\nFormat settings, QPel : No\nFormat settings, GMC : No warppoints\nFormat settings, Matrix : Custom\nCodec ID : XVID\nCodec ID/Hint : XviD\nDuration : 1h 40mn\nBit rate : 844 Kbps\nWidth : 608 pixels\nHeight : 336 pixels\nDisplay aspect ratio : 16:9\nFrame rate : 25.000 fps\nColor space : YUV\nChroma subsampling : 4:2:0\nBit depth : 8 bits\nScan type : Progressive\nBits/(Pixel*Frame) : 0.165\nStream size : 608 MiB (87%)\nWriting library : XviD 1.2.1 (UTC 2008-12-04)\n\nAudio\nID : 1\nFormat : MPEG Audio\nFormat version : Version 1\nFormat profile : Layer 3\nMode : Joint stereo\nMode extension : MS Stereo\nCodec ID : 55\nCodec ID/Hint : MP3\nDuration : 1h 40mn\nBit rate mode : Variable\nBit rate : 115 Kbps\nNominal bit rate : 128 Kbps\nChannel(s) : 2 channels\nSampling rate : 48.0 KHz\nStream size : 82.8 MiB (12%)\nAlignment : Aligned on interleaves\nInterleave, duration : 24 ms (0.60 video frame)\nInterleave, preload duration : 516 ms\nWriting library : LAME3.98r\nEncoding settings : -m j -V 4 -q 2 -lowpass 17 --abr 128\n\nGreetz to all other respected RG's out there. Let the Legend Killing Continue.\n\n","torrent":{"xt":"urn:btih:10fece471a846224280e82cd612a379d523c0235","amp;dn":"Haunted+Universities+2009+DVDRip+fasamoo+LKRG","amp;tr":["udp%3A%2F%2Ftracker.openbittorrent.com%3A80","udp%3A%2F%2Fopen.demonii.com%3A1337","udp%3A%2F%2Ftracker.coppersurfer.tk%3A6969","udp%3A%2F%2Fexodus.desync.com%3A6969"],"infoHash":"10fece471a846224280e82cd612a379d523c0235","infoHashBuffer":{"type":"Buffer","data":[16,254,206,71,26,132,98,36,40,14,130,205,97,42,55,157,82,60,2,53]},"announce":[],"urlList":[]}}